<?xml version="1.0" encoding="UTF-8" standalone="no"?>
<!-- Created with Inkscape (http://www.inkscape.org/) -->

<svg
   xmlns:dc="http://purl.org/dc/elements/1.1/"
   xmlns:cc="http://creativecommons.org/ns#"
   xmlns:rdf="http://www.w3.org/1999/02/22-rdf-syntax-ns#"
   xmlns:svg="http://www.w3.org/2000/svg"
   xmlns="http://www.w3.org/2000/svg"
   xmlns:sodipodi="http://sodipodi.sourceforge.net/DTD/sodipodi-0.dtd"
   xmlns:inkscape="http://www.inkscape.org/namespaces/inkscape"
   width="64px"
   height="64px"
   id="svg3877"
   version="1.1"
   inkscape:version="0.48.4 r9939"
   sodipodi:docname="New document 10">
  <defs
     id="defs3879" />
  <sodipodi:namedview
     id="base"
     pagecolor="#ffffff"
     bordercolor="#666666"
     borderopacity="1.0"
     inkscape:pageopacity="0.0"
     inkscape:pageshadow="2"
     inkscape:zoom="7.7781746"
     inkscape:cx="111.73036"
     inkscape:cy="72.252237"
     inkscape:current-layer="layer1"
     showgrid="true"
     inkscape:document-units="px"
     inkscape:grid-bbox="true"
     inkscape:window-width="2560"
     inkscape:window-height="1385"
     inkscape:window-x="0"
     inkscape:window-y="27"
     inkscape:window-maximized="1" />
  <metadata
     id="metadata3882">
    <rdf:RDF>
      <cc:Work
         rdf:about="">
        <dc:format>image/svg+xml</dc:format>
        <dc:type
           rdf:resource="http://purl.org/dc/dcmitype/StillImage" />
        <dc:title></dc:title>
      </cc:Work>
    </rdf:RDF>
  </metadata>
  <g
     id="layer1"
     inkscape:label="Layer 1"
     inkscape:groupmode="layer">
    <path
       style="fill:#000000;fill-opacity:1;stroke:none"
       d="M 32.676765,0.00124176 C 31.074711,0.01863103 29.240804,0.21654729 28.170533,0.43725461 26.267818,0.82962483 26.265442,4.6753338 26.011753,3.8121209 25.758049,2.9489081 17.140104,1.9471231 14.723941,2.2426483 c -2.49491,0.3051442 3.11997,3.7722519 6.978181,5.1007881 6.954199,1.8766833 -1.816227,6.9225556 -0.507393,10.2015846 0,0 -9.386685,1.724947 -14.2068721,4.157641 -4.8201876,2.432677 -6.72210064,6.042474 -6.97579036,8.239733 -0.25370341,2.197269 3.54695866,6.982697 6.33758706,8.55217 2.7906418,1.569472 11.5430884,2.671051 11.5430884,2.671051 0,0 -0.37896,2.430719 0.255278,2.980035 0.634239,0.549322 3.679358,0.391387 3.679358,0.391387 0,0 -1.6506,2.592091 -2.919062,5.338666 -1.268476,2.746584 -3.931472,9.25843 -6.087877,10.74943 -2.156389,1.491 -5.1999333,0.236895 -5.1999333,0.236895 0,0 -4.3112051,0.07847 -2.4085044,1.647946 1.9027005,1.56948 17.6309507,1.25313 17.6309507,1.25313 0,0 0.63106,-5.806569 0.377371,-7.062144 -0.253702,-1.255584 3.049084,-5.570161 6.981345,-7.453531 3.932258,-1.88337 3.93147,-1.413998 6.97579,-0.236896 3.044331,1.177103 3.297234,5.338667 3.424078,6.986612 0.126838,1.647953 0.505018,7.45353 0.505018,7.45353 0,0 2.410094,0.549324 8.879291,0.549324 6.469213,0 9.641176,-0.942181 10.782794,-1.726913 1.141632,-0.78474 -1.393733,-0.941694 -4.18436,-1.098638 -2.790643,-0.156945 -5.202325,-1.334544 -6.470788,-1.726913 -1.268475,-0.392362 -3.549347,-10.434549 -4.056728,-12.239447 -0.507393,-1.80489 -3.936224,-2.670556 -2.414059,-3.141398 1.522166,-0.470843 0.508969,-2.510671 2.031134,-2.667615 1.522166,-0.156953 11.54468,-2.825543 15.350094,-5.572127 3.805401,-2.746583 3.805401,-8.002358 0.887928,-11.219784 -2.917487,-3.217418 -17.122786,-6.985141 -18.391248,-7.29904 -1.268476,-0.313889 -3.80938,-8.3196841 -3.80938,-8.3196841 0,0 1.015574,-2.1168301 6.850533,-2.666145 2.585255,-0.2433813 6.340779,-2.8245601 3.423293,-2.9815133 -2.917487,-0.1569447 -11.542302,0.62583 -11.542302,0.62583 0,0 -1.77189,-2.98053028 -2.913509,-3.60831763 C 35.029786,0.08363736 33.922823,-0.01230882 32.676765,0.00124176 z M 18.14802,25.626835 c 0,0 5.709704,13.341512 3.807005,12.792198 -1.902716,-0.549315 -4.438851,-3.923686 -6.087862,-7.141113 -1.268477,-3.217417 2.280857,-5.651085 2.280857,-5.651085 z m 25.738855,0.07897 c 0,0 3.549348,2.430232 2.280872,5.64765 -1.649009,3.217426 -4.185162,6.591797 -6.087862,7.141112 -1.902716,0.549315 3.80699,-12.788762 3.80699,-12.788762 z"
       id="path2996"
       inkscape:connector-curvature="0"
       sodipodi:nodetypes="ssssccssscscsscscsssscsssssssssscsscsscsccccsc" />
  </g>
</svg>
