<?xml version="1.0" encoding="UTF-8" standalone="no"?>
<!-- Created with Inkscape (http://www.inkscape.org/) -->

<svg
   xmlns:dc="http://purl.org/dc/elements/1.1/"
   xmlns:cc="http://creativecommons.org/ns#"
   xmlns:rdf="http://www.w3.org/1999/02/22-rdf-syntax-ns#"
   xmlns:svg="http://www.w3.org/2000/svg"
   xmlns="http://www.w3.org/2000/svg"
   xmlns:sodipodi="http://sodipodi.sourceforge.net/DTD/sodipodi-0.dtd"
   xmlns:inkscape="http://www.inkscape.org/namespaces/inkscape"
   width="64px"
   height="64px"
   id="svg3832"
   version="1.1"
   inkscape:version="0.48.4 r9939"
   sodipodi:docname="Nowy dokument 6">
  <defs
     id="defs3834" />
  <sodipodi:namedview
     id="base"
     pagecolor="#000000"
     bordercolor="#666666"
     borderopacity="1.0"
     inkscape:pageopacity="1"
     inkscape:pageshadow="2"
     inkscape:zoom="5.5"
     inkscape:cx="32"
     inkscape:cy="32"
     inkscape:current-layer="layer1"
     showgrid="true"
     inkscape:document-units="px"
     inkscape:grid-bbox="true"
     inkscape:window-width="1280"
     inkscape:window-height="746"
     inkscape:window-x="0"
     inkscape:window-y="27"
     inkscape:window-maximized="1" />
  <metadata
     id="metadata3837">
    <rdf:RDF>
      <cc:Work
         rdf:about="">
        <dc:format>image/svg+xml</dc:format>
        <dc:type
           rdf:resource="http://purl.org/dc/dcmitype/StillImage" />
        <dc:title></dc:title>
      </cc:Work>
    </rdf:RDF>
  </metadata>
  <g
     id="layer1"
     inkscape:label="Layer 1"
     inkscape:groupmode="layer">
    <path
       style="fill:#ffffff;fill-opacity:1;stroke:#fffffe;stroke-width:0.75724828px;stroke-linecap:butt;stroke-linejoin:miter;stroke-opacity:1"
       d="m 19.408728,13.973399 c 0,0 -7.812986,-6.3737509 -14.5979441,-2.05605 C -1.9741755,16.23505 1.9323166,21.375175 4.6051833,22.6088 7.2780425,23.842426 16.53026,22.197592 18.791911,20.552751 c 2.261659,-1.644835 0.616817,-6.579352 0.616817,-6.579352 z"
       id="path2996"
       inkscape:connector-curvature="0" />
    <path
       style="fill:#ffffff;fill-opacity:1;stroke:#fffffe;stroke-width:0.75724828px;stroke-linecap:butt;stroke-linejoin:miter;stroke-opacity:1"
       d="m 41.819657,17.057474 c 0,0 5.551334,-3.906492 10.074642,-2.878467 4.523302,1.028018 9.457819,2.672859 9.046611,6.579352 -0.411208,3.906492 -4.934518,4.728909 -9.869035,3.700884 -4.934518,-1.028025 -8.429794,-5.140118 -8.429794,-5.140118 z"
       id="path3000"
       inkscape:connector-curvature="0" />
    <path
       style="fill:#ffffff;fill-opacity:1;stroke:#fffffe;stroke-width:0.75724828px;stroke-linecap:butt;stroke-linejoin:miter;stroke-opacity:1"
       d="m 19.614336,14.590215 c 0,0 -1.850443,-7.8129847 0.205608,-10.2802435 2.05605,-2.4672588 4.317701,-5.5513341 6.37375,-2.8784673 2.056043,2.6728592 0,5.5513266 -0.411208,9.2522198 -0.411216,3.700883 -0.411216,5.345725 -0.411216,5.345725 z"
       id="path3002"
       inkscape:connector-curvature="0" />
    <path
       style="fill:#ffffff;fill-opacity:1;stroke:#fffffe;stroke-width:0.75724828px;stroke-linecap:butt;stroke-linejoin:miter;stroke-opacity:1"
       d="m 37.913164,13.973399 c 0,0 3.289683,-2.05605 2.878475,-6.1681428 -0.411216,-4.1121013 -2.878475,-8.4298022 0.411208,-6.5793601 3.289677,1.8504422 5.962536,2.4672588 5.962536,6.373752 0,3.9064919 -2.672859,9.4578259 -3.700885,9.8690349 -1.028025,0.411209 -5.962542,1.028025 -5.962542,1.028025 z"
       id="path3004"
       inkscape:connector-curvature="0" />
    <path
       style="fill:none;stroke:#fffffe;stroke-width:3.78624129;stroke-linecap:butt;stroke-linejoin:miter;stroke-miterlimit:4;stroke-opacity:1;stroke-dasharray:none"
       d="m 30.305787,12.739774 c 0,0 -6.37375,-1.028026 -10.280243,2.672859 -3.906492,3.700884 -12.7475015,30.429513 -9.457819,40.915365 1.317135,4.198366 10.485845,5.962536 16.242779,5.962536 5.756942,0 14.992016,-1.252202 17.88762,-3.906493 2.467267,-2.261651 3.084075,-8.841002 2.467259,-16.242778 C 46.548573,34.739486 48.604616,22.814408 44.081314,18.2911 39.558006,13.767791 37.501956,13.150982 30.305787,12.739774 z"
       id="path3006"
       inkscape:connector-curvature="0"
       sodipodi:nodetypes="cssssssc" />
    <path
       inkscape:connector-curvature="0"
       style="fill:#ffffff;fill-opacity:1;stroke:#ffffff;stroke-width:0.75724828px;stroke-linecap:butt;stroke-linejoin:miter;stroke-opacity:1"
       d="m 28.078304,12.619856 c -2.210657,0.02408 -5.604205,0.4793 -8.045763,2.792353 -0.752568,0.712957 -1.662432,2.520697 -2.626705,4.969441 3.333073,0.854267 7.2637,1.649976 11.051092,1.822129 6.085527,0.276615 12.912362,0.626479 17.795334,0.212976 -0.456931,-1.660085 -1.145504,-3.085953 -2.177089,-4.117538 -4.523309,-4.523308 -6.576284,-5.149833 -13.772453,-5.561041 0,0 -0.89802,-0.132776 -2.224416,-0.11832 z"
       id="path3008" />
    <path
       sodipodi:type="arc"
       style="fill:none;stroke:#fffffe;stroke-width:1.79999995;stroke-miterlimit:4;stroke-opacity:1;stroke-dasharray:none"
       id="path3014"
       sodipodi:cx="244.36418"
       sodipodi:cy="395.56558"
       sodipodi:rx="3.258189"
       sodipodi:ry="5.430315"
       d="m 247.62237,395.56558 a 3.258189,5.430315 0 1 1 -6.51638,0 3.258189,5.430315 0 1 1 6.51638,0 z"
       transform="matrix(0.94041504,0.14679709,-0.14679709,0.94041504,-134.85074,-374.98877)" />
    <path
       style="fill:#ffffff;fill-opacity:1;stroke:#fffffe;stroke-width:0.95180345px;stroke-linecap:butt;stroke-linejoin:miter;stroke-opacity:1"
       d="m 36.786363,32.832501 c -1.251186,-0.177855 -2.248701,0.04142 -3.047037,0.427481 -0.131739,2.450183 0.844944,4.496987 2.361781,4.733756 1.541287,0.240592 3.109762,-1.470568 3.710501,-3.90631 -0.595227,-0.473462 -1.292736,-0.860606 -2.1482,-1.087924 -0.298234,-0.0793 -0.602489,-0.127983 -0.877045,-0.167003 z"
       id="path3786"
       inkscape:connector-curvature="0" />
    <path
       sodipodi:type="arc"
       style="fill:#ffffff;fill-opacity:1;stroke:#fffffe;stroke-opacity:1"
       id="path3788"
       sodipodi:cx="226.17262"
       sodipodi:cy="420.00198"
       sodipodi:rx="2.1721261"
       sodipodi:ry="3.5297048"
       d="m 228.34475,420.00198 a 2.1721261,3.5297048 0 1 1 -4.34425,0 2.1721261,3.5297048 0 1 1 4.34425,0 z"
       transform="matrix(0.93398532,0.42762786,-0.42762786,0.93398532,-10.085282,-439.16699)"
       inkscape:transform-center-x="-3.0424074" />
    <path
       inkscape:transform-center-x="-2.9697196"
       transform="matrix(0.91166967,0.41741057,-0.41741057,0.91166967,3.6319224,-427.26892)"
       d="m 228.34475,420.00198 a 2.1721261,3.5297048 0 1 1 -4.34425,0 2.1721261,3.5297048 0 1 1 4.34425,0 z"
       sodipodi:ry="3.5297048"
       sodipodi:rx="2.1721261"
       sodipodi:cy="420.00198"
       sodipodi:cx="226.17262"
       id="path3790"
       style="fill:#ffffff;fill-opacity:1;stroke:#fffffe;stroke-opacity:1"
       sodipodi:type="arc" />
    <path
       transform="matrix(0.94922812,0.21238439,-0.21238439,0.94922812,-123.29375,-395.40773)"
       d="m 247.62237,395.56558 a 3.258189,5.430315 0 1 1 -6.51638,0 3.258189,5.430315 0 1 1 6.51638,0 z"
       sodipodi:ry="5.430315"
       sodipodi:rx="3.258189"
       sodipodi:cy="395.56558"
       sodipodi:cx="244.36418"
       id="path3795"
       style="fill:none;stroke:#fffffe;stroke-width:1.79999995;stroke-miterlimit:4;stroke-opacity:1;stroke-dasharray:none"
       sodipodi:type="arc" />
    <path
       id="path3797"
       d="m 24.554017,31.919373 c -1.264067,-0.264788 -2.295939,-0.107666 -3.135779,0.23283 -0.297675,2.489879 0.561892,4.642243 2.092951,4.984807 1.555735,0.348092 3.269267,-1.292365 4.044243,-3.736232 -0.575418,-0.522502 -1.260925,-0.963796 -2.118153,-1.252626 -0.298863,-0.100669 -0.605874,-0.170653 -0.883254,-0.228832 z"
       style="fill:#ffffff;fill-opacity:1;stroke:#fffffe;stroke-width:0.97269779px;stroke-linecap:butt;stroke-linejoin:miter;stroke-opacity:1"
       inkscape:connector-curvature="0" />
  </g>
</svg>
